<svg version="1.2" xmlns="http://www.w3.org/2000/svg" viewBox="0 0 2048 2048" width="2048" height="2048"><style>.a{fill:#f05138}.b{fill:#fff}</style><path class="a" d="m0 420c0-232 188-420 420-420h1208c232 0 420 188 420 420v1208c0 232-188 420-420 420h-1208c-232 0-420-188-420-420z"/><path fill-rule="evenodd" class="b" d="m977.5 291.9c-7.7 4.5-25.4 29.4-39.2 55.4-13.8 25.9-34.2 58.2-45.2 71.8l-20.1 24.7 10.7-41.4c12.4-48 5.8-74.2-21.9-86.8-37.2-17-60.9 1.7-79.8 62.8-9.3 30.2-17.1 66.5-17.2 80.7l-0.3 25.9-20.3-24.7c-11.1-13.6-20.2-29.3-20.3-35 0-18.7-32.5-43.2-57.2-43.2-25.9 0-49.9 24.7-49.9 51.5 0 46.4 66.9 130.9 121.7 153.6 23.2 9.6 28.4 18.4 46.9 79 21.2 69.6 26.2 122.8 13.5 143-5.6 8.7-13.3 9.4-34.9 2.8-15.3-4.7-37.2-10.5-48.7-13.1-19.9-4.3-20.9-7.4-22-64.6-1.9-95.7-45.9-197.6-103.1-238.3-30.3-21.6-61.1-14-80 19.6-11.5 20.6-11.1 23.8 5.8 45.2 40.1 50.5 61.1 94.5 69.6 146.2 5 29.8 6.6 56.5 3.6 59.5-9 9.1-48-15.9-95.5-61.2-49.1-46.9-77.9-54.9-102-28.2-27.1 29.9-17.6 59 35.8 109.8 65.7 62.5 133.5 95.1 230.4 110.7 42.3 6.8 84.5 16.4 93.8 21.4 16.1 8.6 15.4 10.2-15 36.5-17.5 15.1-50.7 34.7-73.8 43.5l-41.9 16.1-12.4-17.7c-54.2-77.4-108.6-107.3-195.5-107.4-70.1-0.1-92.7 13.7-92.7 56.4 0 37.1 18.5 49 77.4 49.9 31.5 0.5 61 6.4 79 15.8l28.9 15.1-28.9 7.7c-15.8 4.3-51.4 5.7-79 3.1-37.3-3.4-54.8-1.3-68 7.9-23.1 16.1-23.9 60.9-1.5 81.2 14.5 13.1 29.2 14.2 138 10.4 107.7-3.8 170.9-13.6 226.7-35.2 11.5-4.4 14.4-1.2 14.4 15.9 0 47.5 57.7 70.8 91.7 36.9 15.2-15.3 16.9-24.2 13.3-69.6-3.4-42.3-1.5-54.5 9.9-64.9 7.7-7 16.5-12.7 19.6-12.7 12.2 0 4.6 107.3-11.3 157.7-16.5 52.8-17.1 53.4-43.2 49.7-14.5-2-35.7-10.1-47-17.8-71.7-49.2-202.3-43.8-314.1 12.8-21 10.6-44.2 25.3-51.5 32.6-28.8 28.8-6.6 86.2 33.4 86.2 9.1 0 38.9-11.2 66.1-24.8 54.3-27.1 133.6-46.3 155.8-37.8 21.8 8.4 2.6 22.1-42.5 30.5-49.5 9.3-61.3 19.4-61.3 52.4 0 35.7 21.7 53.8 64.7 53.8 43.1 0 80.3-15.3 130.4-53.5 28.5-21.8 45.4-29 63.7-27.2 22 2.2 25.6 6.3 30.6 35.4 3.1 18.1 9.7 43.6 14.7 56.6 8.6 22.3 8.1 23.4-9.6 18.6-52.8-14.1-144.1-15-195.7-1.9-80.3 20.3-114.1 49.8-104 90.4 8.1 32.1 39.2 44 77.6 29.7 16.8-6.2 49.9-13.5 73.7-16.3 49.9-5.8 52.5-1.1 26.8 49.4-20.7 40.5-20.7 53.4 0 74.1 38.6 38.6 87.5 8.5 111.8-68.7 15.5-49.2 17.5-50 71.1-30.9 15.8 5.6 85.2 99.8 117.3 159.1 23 42.5 49.7 55.8 82.3 41 41.7-19 30.7-71-33.6-159.3-15.3-21-27.8-41.6-27.8-45.9 0-21.6 77.6-68.3 113.4-68.3 9.8 0 18.8 10.3 25.7 29.4 24 66.4 95 118.3 162.3 118.7 40.2 0.2 61-18.5 61-55.1 0-31.1-14.6-43.8-56.9-49.4-18.7-2.6-40.1-12.3-50-22.7l-17.2-18.4 88.8-4.9c172.7-9.6 299.9-71.9 277.4-136-13.5-38.4-44.7-41.6-105.9-11.2-29.3 14.6-70 29.6-90.6 33.5-33.5 6.2-37.4 5.4-37.4-8.5 0-10.9 6-15.4 20.5-15.4 57.3 0 188.3-78.9 198.5-119.6 3.2-12.7 0.1-28.2-8.3-41-18.6-28.5-55.6-27.3-94.2 3-35.3 27.8-77.9 50.6-94.4 50.6-7.5 0-13.4-12.5-16.4-34.9-5.7-42.7-31.6-67.4-62.8-59.9-35.7 8.6-43.1 26.6-37.7 90.7 3.1 36.2 0.9 72.9-5.7 98.8l-10.7 41.2-88.5 4.1c-84.8 3.9-111.7-0.7-68.1-11.6 32.1-8.1 76.1-51.7 90.8-90.2 7.8-20.5 12.3-51.9 10.8-75.7-2.2-34.6-5.8-42.2-24.5-51.1-15.6-7.4-28-8-43.4-2.2-23.1 8.8-25.5 13-33 58.5-2.7 16.2-10.5 36.6-17.5 45.3-11.8 14.8-12.3 14.1-7.4-11.3 7.6-39-13-67.6-48.6-67.6-15.7 0-33 6.2-40.3 14.4-28 31.1-35.9 153.9-13.8 213.2 4.9 13.2 1.9 22-11.9 35-10.2 9.6-20.8 17.4-23.6 17.4-9.9 0-39.7-93.1-44.4-138.8-2.7-25.6-0.6-62 4.5-81 11.1-40.9 58.6-103.4 111.7-146.9l38.3-31.4 67.4 23.1c87.9 30.1 203.1 37.5 271.7 17.6l46.7-13.6 41.4 28.5c47.5 32.7 116.9 50.1 168.7 42.4 46.9-7.1 64.6-21.4 64.6-52.4 0-40.3-14.6-51-69.9-51-49.1 0-105.8-17.1-105.8-31.9 0-11.9 46.6-21.3 106.6-21.5 49-0.1 54.1-1.9 65.7-22.4 11.7-20.6 11.4-24-4-44.6-22.4-30-71.9-46.7-120.5-40.5-51.1 6.4-86.7 22-156.7 68.5-53.8 35.8-62.5 38.9-118.7 41.7-33.4 1.7-73.8 0.6-89.7-2.3l-29-5.5 40.3-27.1c34.7-23.4 49.8-27.9 109.3-32.6 85.3-6.7 143.6-21.9 210.3-54.7 98.8-48.7 149-135.9 97.6-169.6-27.9-18.3-54.9-9.9-81.8 25.4-12.2 16-40.9 38.6-63.9 50.2-38.6 19.6-152.8 49.4-160.3 41.9-8.2-8.2 14.7-46.8 27.9-47 51.3-0.6 135.1-68.9 170.8-139.2 30.5-60.3 27.2-102.5-9-116.2-32.9-12.5-54 2.7-85 61.4-18.3 34.7-39.3 61.7-56.1 72.1l-26.7 16.7v-61.7c0-52.7 3.6-68.7 24.7-108.7 13.6-25.9 24.7-55.3 24.7-65.5 0-25.4-25-45.7-56.1-45.7-21.6 0-29.8 5.9-47.7 34.3-11.9 18.9-27.3 50.9-34.2 71.2-12.4 36.4-12.8 36.6-23 17.1-12.9-24.6-28.4-106.4-28.5-150.9-0.2-38.1-4.9-47.7-30.3-61.1-25-13.1-58.3 1-69 29.3-4.8 12.3-7.5 44.8-6.1 72.2l2.6 49.7-35.6-2.9c-44.6-3.5-67.4 14.5-67.4 53.1 0 37.7 24.1 52.6 86.3 53.1l49.6 0.5 24.7 38.1c13.8 21.3 36.9 43.9 52.1 51.1l27.4 12.8-4.2 54.9c-4.8 62.5-24.4 106.4-64.3 143.9-22.7 21.5-87.5 60.6-100.2 60.6-1.9 0-1.5-17.4 0.9-38.8 3.4-30.1 10.5-44.6 31.8-64.6 52.5-49.6 76.4-135 45.6-162.9-32.1-29.1-68.3-13.7-90.6 38.6l-10 23.4-28.5-57.1c-31.6-63.1-55.8-81.2-90.7-67.9-37.9 14.4-39.8 41.6-7.6 109.4 37.2 78.4 48.4 146.7 36.6 223.4-6.6 43.1-14.2 63.6-29.2 78.7-18.8 18.9-20.3 19.2-20.3 4.1-0.2-21.6-35.1-95.8-51.6-109.4-11.6-9.7-11.7-13.9-0.9-39.8 17.6-41.9 15.4-131.5-4.8-203.5l-17.2-61.5 64.1-64.6c100.9-101.5 142.8-198.2 99.2-228.7-21-14.7-37.4-15.9-57.5-4.2z"/></svg>