<svg version="1.2" xmlns="http://www.w3.org/2000/svg" width="1200" height="500">
  <style>
    .s0{fill:#63bce4}.s2{fill:#d79783}
  </style>
  <path id="Coral" class="s0" d="M469.5 273.1c-1.3-.6-2.9.1-3.4 1.4-.1.2-1.9 3.9-5.9 6.1 1.2-1.7 2.1-3.4 2.9-5 3.6-7.3 3.4-13.5 3.4-13.8 0-1.4-1.2-2.6-2.7-2.5-1.4 0-2.6 1.2-2.5 2.7 0 .1.1 11.2-9.6 20.3-3.9-4.6-3.4-11-3.4-11.1.2-1.4-.9-2.7-2.3-2.8-1.5-.2-2.8.9-2.9 2.3 0 .4-.7 8.6 4.5 14.9-2.5 1.7-5.4 3.3-8.9 4.6-.4-4.9-1.6-10.2-4.3-15.8q-1.6-3.3-2.9-6.5c9.4-4.1 13.5-11.3 15.3-16.9v-.1c8.8-.1 13.9-7.1 15.1-11 .4-1.4-.4-2.8-1.8-3.2-1.4-.5-2.8.3-3.2 1.7-.1.3-2.3 6.7-8.9 7.3.6-3.9.3-6.6.3-6.8-.1-1.4-1.4-2.5-2.8-2.3-1.5.1-2.5 1.4-2.4 2.8 0 .1.5 4.8-1.3 10.2q-.8 2.4-2 4.4c-3.1-2.3-4.8-8.4-5.1-10.7-.3-1.4-1.6-2.4-3-2.2-1.4.2-2.4 1.6-2.2 3 .2 1.2 1.7 10.1 7.1 14.1q-3 3-7.1 4.9c-7-17.4-8.4-28.7-8.5-28.8-.1-1.4-1.4-2.5-2.9-2.3-1.4.2-2.4 1.5-2.3 2.9.1.7 2.2 17.3 13.9 41.8a39.6 39.6 0 0 1 3.3 23.6q-.1.2-.1.4l-.2-.6c-2.1-6.2-6.8-15-17.3-22.2q-1.3-.8-2.4-1.8c3-2.7 4.6-6.6 4.6-11.6 0-4.3-1.2-7.9-1.2-8-.5-1.4-2-2.1-3.4-1.6a2.6 2.6 0 0 0-1.6 3.3c.1.1 3.4 9.9-2.3 14.3-4-4.3-7-9.7-8.9-16-2-7-1.9-12.6-1.9-12.7.1-1.4-1.1-2.7-2.5-2.7-1.5-.1-2.7 1.1-2.7 2.5 0 .3-.2 6.4 2.1 14.2 3 10.3 8.9 18.8 17.2 24.4l.1.1c-2 0-4.5-.3-7-.9-8.6-2-14.1-7.3-16.4-15.7-.3-1.3-1.8-2.2-3.2-1.8-1.4.4-2.2 1.8-1.8 3.2 2.8 10.2 9.8 16.9 20.1 19.4 3.5.8 6.7 1.1 9.3 1.1 2.5 0 4.3-.2 5-.3q4.2 4 6.8 8.9c-3.8.9-14.7 2.7-23.4-4.5-1.1-.9-2.7-.8-3.7.3-.9 1.2-.7 2.8.4 3.7 6.3 5.3 13.4 6.7 19.1 6.7 4.5 0 8.1-.9 9.8-1.4q0 .3.1.5c2 5.8 1.9 10.2 1.9 10.3-.1 1.2.7 2.3 1.9 2.6q.3.1.7.1c.9 0 1.8-.5 2.3-1.4.1-.1.6-1.2 1.3-3.1 15.2-.5 25-9.4 25.4-9.8 1.1-1 1.2-2.6.2-3.7s-2.6-1.1-3.7-.2c-.1.1-8 7.3-20.2 8.4.6-2.6 1.2-5.6 1.3-8.9 6.6-2.3 11.6-5.3 15.4-8.6 12 0 16.6-10.2 16.8-10.6.5-1.3-.1-2.9-1.4-3.5z"/>
  <path id="Bubbles" d="M435 229c-1.7 0-3-1.3-3-3s1.3-3 3-3 3 1.3 3 3-1.3 3-3 3zm16.5-5c-.8 0-1.5-.7-1.5-1.5s.7-1.5 1.5-1.5 1.5.7 1.5 1.5-.7 1.5-1.5 1.5zm-5-7a8.5 8.5 0 1 1-.01-16.99 8.5 8.5 0 0 1 .01 16.99z" style="opacity:.4;fill:#63bce4"/>
  <path id="C" class="s2" d="M302 334q-9.1 7.2-27.8 12.5-18.8 5.3-36.5 5.3-29.8 0-53.3-13-23.5-13.4-37-36.9-13.4-23.5-13.4-53.3 0-31.2 13-53.8 13.4-22.5 36.9-34.5 23.5-12.5 54.7-12.5 13 0 26 2.4 13.4 2.4 24.4 7.7 5.8 2.9 8.2 7.7 2.9 4.3 2.9 9.6 0 7.6-5.8 14.4-5.3 6.2-14.4 6.2-3.8 0-8.1-1.4-8.7-3.4-18.8-5.3-10-2.4-17.7-2.4-25 0-41.8 16.8-16.3 16.8-16.3 45.1 0 30.2 16.8 47.5 17.3 17.3 44.2 17.3 11 0 23.5-3.8 12.5-3.9 20.1-9.6 5.3-3.4 11.6-3.4 8.1 0 12.9 5.8 5.3 5.2 5.3 13.4 0 10.6-9.6 18.2z"/>
  <path id="O" fill-rule="evenodd" class="s0" d="M433.3 351.8q-28.3 0-51.3-13.4-22.6-14-36-37.5-13-23.5-13-51.8 0-29.3 13-51.9 13.4-23 36-36 22.5-13.4 51.3-13.4 28.8 0 50.9 13.4 22.6 13 35 36 13 22.6 13 51.9 0 28.8-13 52.3-12.9 23-35.5 37-22.1 13.4-50.4 13.4zm0-38.4q24.5 0 39.9-18.2 15.8-18.3 15.8-46.1 0-27.9-15.8-45.6-15.4-17.8-39.9-17.8-24.9 0-41.3 17.8-15.8 17.7-15.8 45.6 0 27.8 15.8 46.1 16.4 18.2 41.3 18.2z"/>
  <path id="RAL" fill-rule="evenodd" class="s2" d="M587.7 351.8q-8.6 0-14.9-5.8-6.2-6.2-6.2-14.4V183.8q0-13.9 8.6-22.6 9.2-8.6 24-8.6h48q29.3 0 47.1 17.3 18.2 17.3 18.2 43.2 0 15.3-8.1 28.8-8.2 13.4-23.6 21.6 6.8 3.3 12 9.1 5.8 5.8 9.2 13.9l15.8 36.5q2.4 5.8 2.4 9.6 0 8.6-6.7 14.4-6.7 5.3-14.9 5.3-5.3 0-10.6-2.9-4.8-2.9-7.6-9.1l-18.3-43.7q-4.8-11.5-12.9-16.3-7.7-5.3-18.3-5.3h-12.5q-9.6 0-9.6 9.6v47q0 8.2-6.2 14.4-6.2 5.8-14.9 5.8zM616 239h29.3q12 0 18.7-6.7 7.2-6.7 7.2-17.3 0-11-7.2-17.3-6.7-6.7-18.7-6.7H616q-7.2 0-7.2 7.2v33.6q0 7.2 7.2 7.2zm140.2 112.8q-7.7 0-14.9-5.8-6.7-5.7-6.7-14.8 0-3.9 1.4-8.2l60.5-157.9q3.4-8.7 11.1-13 7.6-4.3 15.8-4.3 8.6 0 16.3 4.3 8.2 4.3 11.5 13L916 322q1 2 1 3.9v3.8q0 10.1-6.7 15.9-6.7 5.7-14.9 5.7-5.8 0-11.5-2.9-5.3-3.3-7.7-10l-13.9-37.5q-.5-2.9-3.9-2.9h-64.8q-3.3 0-4.3 2.9l-13.4 37.9q-3.4 6.3-8.7 9.6-5.2 3.4-11 3.4zm54.7-91.2h28.3q2.9 0 4.4-1.9 1.9-2.4.9-5.8L832 218.8q-2.8-7.6-7.2-7.6-4.3 0-7.2 8.1l-12 34.1q-.9 2.9.5 5.3 1.5 1.9 4.8 1.9zm235.2 86.4H977q-13.9 0-22.6-8.6-8.6-8.7-8.6-22.6v-145q0-9.1 6.2-14.8 6.3-5.8 15.9-5.8 9.1 0 14.9 5.8 6.2 5.7 6.2 14.8v122.4q0 14.4 14.4 14.4h42.7q8.7 0 13.9 5.8 5.8 5.3 5.8 13.9 0 8.7-5.8 14.4-5.2 5.3-13.9 5.3z"/>
</svg>
